 http://www.imdb.com/title/tt0099005

Source: Air.America.1990.720p.BluRay.x264-CiNEFiLE Thanks!

Subs: Bulgarian, Croatian, Danish, Dutch, English, Finnish, Greek, Polish, Romanian, Servian and Spanish.

Sample and Screens included.

General
Complete name                            : Air America-720p MP4 AAC BRRip 1990-CC.mp4
Format                                   : MPEG-4
Format profile                           : Base Media
Codec ID                                 : isom
File size                                : 2.86 GiB
Duration                                 : 1h 52mn
Overall bit rate mode                    : Variable
Overall bit rate                         : 3 641 Kbps
Encoded date                             : UTC 2012-11-06 16:28:43 

Video
ID                                       : 1
Format                                   : AVC
Format/Info                              : Advanced Video Codec
Format profile                           : High@L4.1
Format settings, CABAC                   : Yes
Format settings, ReFrames                : 5 frames
Codec ID                                 : avc1
Codec ID/Info                            : Advanced Video Coding
Duration                                 : 1h 52mn
Bit rate                                 : 3 311 Kbps
Maximum bit rate                         : 11.7 Mbps
Width                                    : 1 280 pixels
Height                                   : 544 pixels
Display aspect ratio                     : 2.35:1
Frame rate mode                          : Variable
Frame rate                               : 23.976 fps
Minimum frame rate                       : 19.048 fps
Maximum frame rate                       : 24.390 fps
Color space                              : YUV
Chroma subsampling                       : 4:2:0
Bit depth                                : 8 bits
Scan type                                : Progressive
Bits/(Pixel*Frame)                       : 0.198
Stream size                              : 2.56 GiB (89%)
Writing library                          : x264 core 112

Audio
ID                                       : 2
Format                                   : AAC
Format/Info                              : Advanced Audio Codec
Format profile                           : LC
Codec ID                                 : 40
Duration                                 : 1h 52mn
Bit rate mode                            : Variable
Bit rate                                 : 384 Kbps
Maximum bit rate                         : 742 Kbps
Channel(s)                               : 6 channels
Channel positions                        : Front: L C R, Side: L R, LFE
Sampling rate                            : 48.0 KHz
Compression mode                         : Lossy
Delay relative to video                  : 83ms
Stream size                              : 309 MiB (11%)

Enjoy...

Requested by romeo49000

Coming soon: The Horse Whisperer, The Interpreter, Les Diaboliques and more...